<?xml version="1.0" standalone="no"?>
<!DOCTYPE svg PUBLIC "-//W3C//DTD SVG 20010904//EN">
<svg xmlns="http://www.w3.org/2000/svg"
 width="1148.000000pt" height="1148.000000pt" viewBox="0 0 1148.000000 1148.000000"
 preserveAspectRatio="xMidYMid meet">
<g transform="translate(0.000000,1148.000000) scale(0.100000,-0.100000)"
fill="#000000" stroke="none">
<path d="M8145 11467 c-37 -23 -72 -67 -85 -110 -8 -23 -16 -46 -19 -52 -3 -5
-6 -12 -6 -15 -1 -3 -20 -63 -45 -135 -24 -71 -43 -132 -43 -135 1 -3 -7 -21
-17 -40 -10 -19 -18 -37 -18 -40 -1 -20 -17 -67 -26 -79 -6 -8 -10 -16 -8 -18
1 -1 2 -4 1 -5 0 -2 -2 -11 -4 -21 -2 -10 -7 -26 -11 -35 -4 -9 -8 -19 -9 -22
-1 -3 -4 -12 -7 -20 -3 -8 -25 -71 -47 -140 -23 -69 -46 -133 -52 -143 -5 -10
-7 -22 -4 -27 4 -6 1 -10 -5 -10 -6 0 -9 -4 -6 -8 3 -5 -1 -20 -9 -35 -8 -15
-11 -27 -8 -27 3 0 0 -7 -7 -15 -7 -8 -9 -15 -5 -15 4 0 2 -7 -5 -15 -7 -8 -9
-15 -5 -15 4 0 3 -6 -3 -12 -6 -7 -11 -17 -11 -23 -1 -14 -21 -76 -31 -100
-16 -36 -73 -210 -73 -222 0 -7 -4 -13 -8 -13 -3 0 -9 -12 -12 -27 -3 -16 -13
-48 -22 -73 -9 -25 -18 -52 -20 -60 -2 -8 -20 -60 -41 -115 -20 -55 -37 -107
-38 -115 -1 -8 -7 -24 -14 -36 -6 -11 -12 -31 -14 -45 -2 -13 -6 -28 -10 -34
-3 -5 -20 -53 -38 -105 -68 -202 -151 -446 -157 -460 -3 -8 -7 -19 -8 -25 -3
-14 -120 -354 -133 -386 -6 -15 -8 -30 -5 -33 4 -3 0 -6 -7 -6 -7 0 -10 -3 -7
-7 4 -3 2 -12 -4 -20 -6 -7 -9 -13 -6 -13 3 0 -1 -17 -10 -37 -8 -21 -17 -49
-20 -62 -2 -14 -7 -29 -11 -35 -4 -6 -7 -13 -8 -16 0 -3 -3 -12 -6 -20 -4 -8
-27 -78 -53 -155 -26 -77 -50 -147 -53 -155 -3 -8 -7 -19 -7 -25 -1 -5 -7 -23
-13 -38 -7 -16 -12 -35 -12 -43 0 -8 -4 -14 -8 -14 -5 0 -9 -6 -9 -12 0 -13
-56 -184 -73 -223 -7 -17 -31 -87 -35 -105 -10 -40 -19 -67 -25 -75 -7 -10
-21 -60 -19 -70 0 -4 -7 -17 -15 -31 -9 -13 -14 -24 -12 -24 3 0 -16 -57 -40
-127 -25 -71 -47 -132 -48 -138 -1 -5 -4 -14 -8 -20 -3 -5 -9 -25 -13 -44 -4
-19 -14 -50 -23 -70 -16 -38 -22 -58 -24 -78 -1 -7 -5 -13 -10 -13 -5 0 -7 -3
-5 -7 3 -5 0 -19 -6 -33 -5 -14 -11 -30 -12 -36 -2 -7 -17 -50 -33 -95 -17
-46 -34 -97 -38 -114 -4 -16 -10 -34 -15 -40 -4 -5 -7 -13 -7 -18 0 -18 -15
-93 -20 -102 -4 -5 -7 -26 -9 -45 -7 -96 -10 -116 -16 -127 -4 -6 -3 -14 2
-17 6 -4 6 -18 1 -34 -4 -16 -4 -36 2 -45 6 -11 5 -17 -1 -17 -7 0 -7 -8 -2
-22 5 -13 5 -33 0 -45 -5 -13 -4 -25 1 -28 5 -3 6 -15 1 -28 -5 -12 -5 -32 0
-44 5 -13 5 -23 1 -23 -4 0 -7 -11 -7 -25 0 -14 3 -25 7 -25 4 0 4 -10 -1 -23
-5 -14 -5 -30 0 -40 7 -11 6 -17 0 -17 -7 0 -7 -8 -2 -22 5 -13 5 -33 0 -45
-5 -13 -4 -25 1 -28 5 -3 6 -15 1 -28 -5 -12 -5 -32 0 -44 5 -13 5 -23 1 -23
-4 0 -7 -11 -7 -25 0 -14 3 -25 7 -25 4 0 4 -10 -1 -23 -5 -14 -5 -30 0 -40 7
-11 6 -17 0 -17 -7 0 -7 -8 -2 -22 5 -13 5 -33 0 -45 -5 -13 -4 -25 1 -28 5
-3 6 -15 1 -28 -5 -12 -5 -32 0 -45 5 -12 5 -22 1 -22 -4 0 -7 -11 -7 -25 0
-14 3 -25 7 -25 4 0 4 -10 -1 -22 -5 -13 -5 -32 -1 -43 4 -11 4 -30 -1 -42 -5
-14 -5 -23 1 -23 6 0 6 -9 0 -25 -6 -15 -6 -27 0 -30 6 -3 6 -15 0 -30 -6 -16
-6 -27 1 -31 7 -4 6 -10 -1 -19 -8 -10 -8 -19 0 -34 6 -13 7 -21 1 -21 -6 0
-6 -11 -1 -30 5 -16 6 -30 2 -30 -9 0 -6 -95 3 -109 3 -6 2 -11 -4 -11 -9 0
-5 -49 4 -58 2 -2 0 -15 -5 -28 -6 -15 -6 -24 0 -24 6 0 6 -9 0 -25 -6 -15 -6
-27 0 -30 6 -3 6 -15 0 -30 -6 -16 -6 -27 1 -31 7 -4 6 -10 -1 -19 -8 -10 -8
-19 0 -34 6 -13 7 -21 1 -21 -6 0 -6 -11 -1 -30 5 -16 6 -30 2 -30 -9 0 -6
-95 3 -109 3 -6 2 -11 -4 -11 -9 0 -5 -49 4 -58 2 -2 0 -15 -5 -28 -6 -15 -6
-24 0 -24 6 0 6 -9 0 -25 -6 -15 -6 -27 0 -30 6 -3 6 -15 0 -30 -6 -16 -6 -27
1 -31 7 -4 6 -10 -1 -19 -8 -10 -8 -19 0 -34 6 -13 7 -21 1 -21 -6 0 -6 -11
-1 -30 5 -16 6 -30 2 -30 -9 0 -6 -95 3 -109 3 -6 2 -11 -4 -11 -9 0 -5 -49 4
-58 2 -2 0 -15 -5 -28 -6 -15 -6 -24 0 -24 6 0 6 -9 0 -25 -6 -15 -6 -27 0
-30 6 -3 6 -15 0 -30 -6 -16 -6 -27 1 -31 7 -4 6 -10 -1 -19 -8 -10 -8 -19 0
-34 6 -13 7 -21 1 -21 -6 0 -6 -11 -1 -30 5 -16 6 -30 2 -30 -9 0 -6 -95 3
-109 3 -6 2 -11 -4 -11 -9 0 -5 -49 4 -58 2 -2 0 -15 -5 -28 -6 -15 -6 -24 0
-24 6 0 6 -9 0 -25 -6 -15 -6 -27 0 -30 6 -3 6 -15 0 -30 -6 -16 -6 -27 1 -31
7 -4 6 -10 -1 -19 -8 -10 -8 -19 0 -34 6 -12 7 -21 3 -21 -4 0 -8 -16 -8 -35
0 -19 3 -35 6 -35 4 0 3 -18 -1 -40 -5 -26 -4 -37 3 -33 6 4 7 1 2 -7 -10 -16
-12 -170 -3 -170 4 0 4 -10 -1 -23 -5 -14 -5 -30 0 -40 7 -11 6 -17 0 -17 -7
0 -7 -8 -2 -22 5 -13 5 -33 0 -45 -5 -13 -4 -25 1 -28 5 -3 6 -15 1 -28 -5
-12 -5 -32 0 -44 5 -13 5 -23 1 -23 -4 0 -7 -11 -7 -25 0 -14 3 -25 7 -25 4 0
4 -10 -1 -23 -5 -14 -5 -30 0 -40 7 -11 6 -17 0 -17 -7 0 -7 -8 -2 -22 5 -13
5 -33 0 -45 -5 -13 -4 -25 1 -28 5 -3 6 -15 1 -28 -5 -12 -5 -32 0 -44 5 -13
5 -23 1 -23 -4 0 -7 -11 -7 -25 0 -14 3 -25 7 -25 4 0 4 -10 -1 -23 -5 -14 -5
-30 0 -40 7 -11 6 -17 0 -17 -7 0 -7 -8 -2 -23 5 -12 5 -32 0 -44 -5 -13 -4
-25 1 -28 5 -3 6 -15 1 -28 -5 -12 -5 -32 0 -44 5 -13 5 -23 1 -23 -4 0 -7
-11 -7 -25 0 -14 3 -25 7 -25 4 0 4 -10 -1 -23 -5 -14 -5 -30 0 -40 7 -11 6
-17 0 -17 -7 0 -7 -8 -2 -22 5 -13 5 -33 0 -45 -5 -13 -4 -25 1 -28 5 -3 6
-15 1 -28 -5 -12 -5 -32 0 -44 5 -13 5 -23 1 -23 -4 0 -7 -11 -7 -25 0 -14 3
-25 6 -25 4 0 3 -18 -1 -40 -4 -23 -3 -43 2 -46 5 -3 4 -11 -2 -19 -8 -10 -8
-19 0 -34 6 -13 7 -21 1 -21 -6 0 -6 -11 -1 -30 5 -16 6 -30 2 -30 -9 0 -6
-95 3 -109 3 -6 2 -11 -4 -11 -9 0 -5 -49 4 -58 2 -2 0 -15 -5 -28 -6 -15 -6
-24 0 -24 6 0 6 -9 0 -25 -6 -15 -6 -27 0 -30 6 -3 6 -15 0 -30 -6 -16 -6 -27
1 -31 7 -4 6 -10 -1 -19 -8 -10 -8 -19 0 -34 6 -12 7 -21 3 -21 -4 0 -8 -16
-8 -35 0 -19 3 -35 6 -35 4 0 3 -18 -1 -40 -5 -26 -4 -37 3 -33 6 4 7 1 2 -7
-5 -7 -7 -70 -6 -139 2 -144 3 -159 18 -186 6 -11 12 -24 13 -30 8 -33 77 -94
115 -102 5 -1 24 -6 40 -10 37 -11 1647 -9 1695 1 41 10 92 36 103 53 4 7 14
18 21 26 8 8 21 38 30 67 15 49 16 343 16 3069 l0 3016 99 1 c54 1 106 4 115
7 9 4 16 3 16 -1 0 -8 224 -7 245 1 7 3 15 3 18 1 8 -8 193 -8 206 0 6 4 11 4
11 -1 0 -9 222 -8 245 0 7 3 15 3 18 1 8 -8 193 -8 206 0 6 4 11 4 11 -1 0 -9
222 -8 245 0 7 3 15 3 18 1 8 -8 193 -8 206 0 6 4 11 4 11 -1 0 -9 222 -8 245
1 8 3 17 1 19 -3 15 -23 162 29 196 69 86 103 81 43 78 930 -3 718 -4 777 -21
807 -32 60 -89 110 -147 130 -52 17 -109 18 -1047 18 l-993 0 -1 1565 c-1 861
-2 1570 -3 1575 -9 46 -52 97 -96 113 -38 13 -103 13 -125 -1z"/>
<path d="M3821 11444 c-40 -13 -86 -31 -102 -40 -16 -8 -32 -15 -36 -15 -5 -1
-18 -5 -31 -10 -13 -5 -25 -9 -26 -9 -2 0 -21 -8 -42 -17 -22 -9 -43 -18 -49
-19 -5 -1 -23 -8 -40 -15 -16 -7 -32 -13 -35 -14 -3 -1 -21 -8 -40 -17 -50
-21 -114 -42 -122 -40 -5 1 -8 -2 -8 -8 0 -5 -9 -10 -19 -10 -11 0 -23 -5 -26
-10 -4 -6 -11 -8 -16 -5 -5 4 -9 1 -9 -5 0 -6 -4 -9 -8 -6 -4 2 -21 -2 -37 -9
-34 -16 -205 -85 -220 -89 -5 -2 -19 -7 -30 -11 -11 -5 -135 -53 -275 -107
-140 -55 -268 -105 -285 -112 -46 -20 -99 -41 -105 -41 -15 -2 -91 -58 -114
-85 -45 -54 -58 -97 -60 -197 0 -51 -4 -93 -8 -93 -4 0 -5 -6 -2 -14 8 -20 10
-126 3 -126 -4 0 -3 -15 1 -34 4 -19 4 -39 0 -46 -4 -7 -4 -26 0 -44 4 -17 4
-40 0 -51 -4 -11 -4 -27 1 -36 5 -9 6 -19 3 -22 -6 -6 -6 -133 -1 -225 1 -23
-1 -42 -5 -42 -4 0 -5 -6 -2 -14 8 -20 10 -126 3 -126 -4 0 -3 -15 1 -34 4
-19 4 -39 0 -46 -4 -7 -4 -26 0 -44 4 -17 4 -40 0 -51 -4 -11 -4 -27 1 -36 5
-9 6 -19 3 -22 -6 -6 -6 -133 -1 -225 1 -23 -1 -42 -5 -42 -4 0 -5 -6 -2 -14
8 -20 10 -126 3 -126 -4 0 -3 -15 1 -34 4 -19 4 -39 1 -45 -4 -6 -4 -36 -1
-66 3 -30 2 -55 -3 -55 -4 0 -5 -5 -2 -10 4 -6 6 -36 6 -68 -1 -60 -1 -103 2
-165 1 -20 -1 -37 -4 -37 -4 0 -3 -16 1 -34 4 -19 5 -37 3 -40 -5 -5 -5 -131
0 -224 1 -23 0 -43 -3 -43 -3 -1 -228 -3 -500 -4 -328 -1 -504 -6 -521 -13
-15 -6 -30 -8 -33 -5 -3 4 -6 1 -6 -5 0 -7 -6 -12 -14 -12 -22 0 -83 -80 -95
-125 -8 -28 -10 -281 -8 -835 l2 -795 23 -48 c37 -73 90 -105 195 -115 46 -4
96 -5 110 -1 14 4 28 4 31 1 10 -9 56 -8 56 1 0 4 5 5 10 2 9 -6 210 -10 235
-5 6 1 12 1 15 0 16 -6 60 -4 60 3 0 4 5 5 10 2 9 -6 210 -10 235 -5 6 1 15 1
20 0 23 -4 136 -1 144 5 5 3 12 1 16 -5 4 -6 11 -8 16 -5 5 4 9 -1160 9 -3033
0 -2652 2 -3045 15 -3081 40 -113 178 -170 293 -121 29 12 52 25 52 29 0 3 10
18 23 31 13 14 32 48 41 75 10 28 22 59 26 70 5 11 15 40 23 65 9 25 36 103
62 175 26 72 48 135 49 140 2 6 8 23 14 38 7 15 15 40 18 55 4 15 11 33 17 40
5 6 7 12 4 12 -4 0 2 19 12 43 10 23 32 85 50 137 18 52 37 104 42 115 8 20
61 171 100 290 11 33 24 69 29 80 9 19 96 263 125 350 7 22 34 99 60 170 25
72 48 135 49 140 2 6 6 18 10 27 4 9 9 22 10 30 2 7 9 27 15 43 7 17 14 35 15
40 2 6 6 17 9 25 3 8 22 62 42 120 21 58 46 130 57 160 11 30 22 63 23 72 2
10 10 32 18 50 8 18 24 60 35 93 45 131 94 271 102 290 5 11 14 38 21 60 6 22
14 45 18 50 3 6 6 15 7 20 3 13 123 355 134 380 21 47 58 165 52 165 -4 0 -2
4 3 8 6 4 18 30 27 57 49 147 102 292 112 304 6 8 10 17 8 20 -3 7 29 112 38
126 4 6 17 42 29 80 12 39 26 79 31 90 5 11 21 54 35 95 14 41 28 81 30 88 2
7 4 13 4 15 0 1 12 34 26 72 15 39 28 93 30 121 2 27 5 54 6 60 1 5 0 14 -1
19 -2 13 -2 87 0 100 1 6 2 12 1 15 -6 19 -4 160 2 160 4 0 4 8 -2 17 -5 10
-5 26 -1 39 5 12 6 25 3 28 -5 5 -7 197 -3 221 1 6 2 15 1 20 -1 6 -2 188 -2
405 l0 395 31 0 c16 0 30 3 30 8 0 4 5 5 10 2 9 -6 210 -10 235 -5 6 1 12 1
15 0 14 -5 60 -5 60 1 0 4 14 4 30 0 17 -3 76 -3 131 0 118 7 135 18 181 119
29 62 50 110 53 120 1 3 16 36 33 74 18 38 32 70 32 72 0 2 13 32 29 66 15 35
49 110 74 168 25 58 56 128 68 155 12 28 23 55 25 60 1 6 20 48 42 95 22 47
54 121 73 165 18 44 37 83 43 87 6 4 7 8 3 8 -4 0 -2 10 5 23 6 12 13 27 14
32 1 6 18 43 37 83 19 39 34 72 31 72 -2 0 5 16 16 35 11 20 20 42 20 50 0 8
4 15 8 15 4 0 8 10 9 21 1 12 10 30 19 40 9 11 14 19 11 19 -5 0 14 45 84 198
34 75 39 99 28 130 -18 48 -27 48 -772 47 -384 0 -701 3 -704 8 -5 8 -7 231
-3 252 1 6 2 12 1 15 -7 18 -4 130 2 130 5 0 5 5 1 11 -6 10 -9 138 -4 164 1
6 2 12 1 15 -6 19 -4 160 2 160 4 0 4 8 -2 17 -5 10 -5 26 -1 39 5 12 6 25 3
28 -5 5 -7 197 -3 221 1 6 2 15 1 20 -6 39 -4 635 2 635 4 0 4 8 -2 17 -5 10
-5 26 -1 39 5 12 6 25 3 28 -5 5 -7 197 -3 221 1 6 2 15 1 20 -6 39 -4 635 2
635 4 0 4 8 -2 17 -5 10 -5 26 -1 39 5 12 6 25 3 28 -5 5 -7 197 -3 221 1 6 2
12 1 15 -2 3 -4 23 -5 45 -13 187 -125 254 -315 189z"/>
</g>
</svg>
