<svg xmlns="http://www.w3.org/2000/svg" viewBox="0 0 801.909 212.811">
  <defs/>
  <path fill="#0d0d0d" d="M84.343 101.495a33.294 33.294 0 00-12.74-11.35 93.685 93.685 0 00-21.037-7.575 103.543 103.543 0 01-12.244-3.7c-2.757-1.093-4.644-2.211-5.638-3.378a6.376 6.376 0 01-1.515-4.322 6.917 6.917 0 013.453-6.11c2.31-1.515 5.563-2.26 9.76-2.26a47.086 47.086 0 0114.057 2.31 76.564 76.564 0 0113.337 5.464 7.938 7.938 0 001.342.249c1.365 0 2.558-.82 3.526-2.434l7.873-13.213a4.735 4.735 0 00.845-2.558c0-1.44-.894-2.658-2.658-3.626A79.016 79.016 0 0065.17 41.59a70.735 70.735 0 00-20.788-3.154q-11.884 0-20.49 4.297a32.047 32.047 0 00-13.113 11.4 28.266 28.266 0 00-4.47 15.348c0 7.029 1.415 12.816 4.296 17.336a30.796 30.796 0 0012.418 10.928 104.563 104.563 0 0021.235 7.376q10.058 2.57 14.678 5.29c3.055 1.813 4.595 4.173 4.595 7.079 0 3.005-1.49 5.14-4.47 6.432-3.006 1.292-7.402 1.937-13.238 1.937q-14.045 0-31.145-8.841a5.96 5.96 0 00-2.682-.72 3.947 3.947 0 00-3.403 2.16l-7.749 13.71A4.378 4.378 0 000 134.726c0 1.366.795 2.508 2.409 3.378a110.903 110.903 0 0019.645 8.444 75.591 75.591 0 0023.769 3.825q19.893 0 31.417-8.122c7.675-5.439 11.524-13.262 11.524-23.544 0-6.855-1.465-12.617-4.42-17.212zM185.898 117.018a3.112 3.112 0 00-2.657-1.341 4.743 4.743 0 00-2.186.62 34.018 34.018 0 01-22.452 8.37 28.084 28.084 0 01-14.901-4.147 30.6 30.6 0 01-10.804-11.077 30.583 30.583 0 01-.05-30.151 29.351 29.351 0 0110.73-10.903 28.668 28.668 0 0114.926-3.999q11.996 0 22.676 8.593a3.8 3.8 0 002.185.745 3.145 3.145 0 002.657-1.59l9.711-14.777a4.436 4.436 0 00.845-2.434 3.495 3.495 0 00-1.341-2.558 57.493 57.493 0 00-37.105-13.585 56.2 56.2 0 00-48.63 27.717 55.52 55.52 0 00.05 55.906 56.454 56.454 0 0020.515 20.316 54.957 54.957 0 0028.189 7.525 53.923 53.923 0 0019.695-3.65 57.632 57.632 0 0017.037-10.183 3.438 3.438 0 001.59-2.782 3.305 3.305 0 00-.845-2.185zM302.926 48.37a31.823 31.823 0 00-11.698-7.276A42.793 42.793 0 00276.5 38.56a37.486 37.486 0 00-18.13 4.67 40.447 40.447 0 00-14.256 12.666L241.93 44c-.323-1.44-1.466-2.16-3.403-2.16h-15.398a3.612 3.612 0 00-2.608.894 3.422 3.422 0 00-.894 2.484v98.35c0 2.36 1.117 3.527 3.377 3.527h19.422c2.26 0 3.378-1.167 3.378-3.526V87.66a24.617 24.617 0 013.577-12.964 25.983 25.983 0 019.71-9.413 26.941 26.941 0 0113.387-3.452 30.426 30.426 0 018.742 1.341 23.34 23.34 0 017.874 3.999l.869.72a2.213 2.213 0 001.689.62 2.771 2.771 0 002.657-1.589l9.115-14.057a4.014 4.014 0 00.72-2.186 2.667 2.667 0 00-1.217-2.31zM425.343 65.955a49.822 49.822 0 00-18.006-19.993 47.39 47.39 0 00-25.954-7.277A45.363 45.363 0 00360.1 43.7a44.626 44.626 0 00-16.07 14.256L341.845 43.9c-.223-1.316-1.167-1.962-2.781-1.962h-15.995a3.164 3.164 0 00-2.384.969 3.693 3.693 0 00-.894 2.558v150.134a3.587 3.587 0 00.894 2.533 3.095 3.095 0 002.384.994h19.522a3.623 3.623 0 002.607-.919 3.533 3.533 0 00.894-2.608l-.223-62.214a44.59 44.59 0 0015.622 12.492 45.806 45.806 0 0020.018 4.371 47.42 47.42 0 0025.83-7.277 50.055 50.055 0 0018.005-20.017 61.887 61.887 0 006.483-28.488 61.99 61.99 0 00-6.483-28.511zm-22.973 43.662a29.362 29.362 0 01-10.804 10.903 28.663 28.663 0 01-14.901 4.023 30.39 30.39 0 01-15.399-4.023 29.663 29.663 0 01-11.102-10.854 28.96 28.96 0 01-4.073-15.075 30.267 30.267 0 0130.45-30.45 28.866 28.866 0 0114.976 4.074 29.828 29.828 0 0110.853 11.027 30.371 30.371 0 013.999 15.349 29.588 29.588 0 01-3.999 15.026zM482.64 85.782V67.047h7.437a1.808 1.808 0 001.656-1.082l9.923-22.646a.985.985 0 00-.902-1.38H482.64V3.268a3.803 3.803 0 00-.645-2.31 2.27 2.27 0 00-1.888-.845 5.98 5.98 0 00-1.341.248l-19.77 7.75a3.77 3.77 0 00-2.781 3.874v29.952h-11.897c-2.16 0-3.253 1.093-3.253 3.279v18.552c0 2.186 1.092 3.278 3.253 3.278h12.021v77.578a2.796 2.796 0 005.337 1.168L482.26 87.52a4.162 4.162 0 00.38-1.738zM511.55 64.355a17.152 17.152 0 00-.92 5.537v74.048a3.299 3.299 0 00.845 2.434 3.364 3.364 0 002.434.844h19.87c2.11 0 3.153-1.092 3.153-3.278V67.047h25.11a3.279 3.279 0 003.278-3.278V45.217a3.279 3.279 0 00-3.279-3.279h-25.109V2.01a2.007 2.007 0 00-3.833-.835zM664.814 57.833a38.834 38.834 0 00-16.84-14.181q-10.878-4.992-25.308-4.967a89.43 89.43 0 00-20.415 2.409 58.858 58.858 0 00-17.534 6.805q-3.502 1.937-3.502 4.843a4.791 4.791 0 00.472 2.185l5.811 11.276c.497 1.217 1.59 1.813 3.279 1.813a7.964 7.964 0 003.03-.72 48.725 48.725 0 0113.411-4.918 70.169 70.169 0 0115.35-1.763q9.573 0 15.745 5.638 6.185 5.662 6.184 15.224v5.092l-35.888.124q-17.323.112-26.798 7.65-9.463 7.525-9.462 22.302a31.331 31.331 0 0018.627 29.605 46.957 46.957 0 0020.067 4.123q12.965 0 22.179-4.322a38.283 38.283 0 0014.802-11.698l1.813 10.68a2.818 2.818 0 001.043 1.44 2.686 2.686 0 001.763.621h14.778a3.236 3.236 0 002.484-.968 3.704 3.704 0 00.919-2.683V79.54c0-8.32-2.012-15.572-6.01-21.707zm-20.317 49.225a19.5 19.5 0 01-3.502 11.3 24.16 24.16 0 01-9.537 7.998 29.478 29.478 0 01-13.014 2.906q-8.382 0-14.082-3.949-5.7-3.912-5.687-10.108a9.655 9.655 0 013.502-7.948c2.36-1.912 5.662-2.856 9.959-2.856h32.361zM796.991 156.607a30.666 30.666 0 00-13.883-11.028c-5.986-2.558-13.04-3.824-21.21-3.824h-31.542a16.867 16.867 0 01-8.916-2.112c-2.285-1.415-3.453-3.253-3.453-5.538a9.365 9.365 0 011.391-5.091 8.947 8.947 0 013.825-3.279 46.587 46.587 0 0019.05 4.024 48.419 48.419 0 0023.768-5.837 42.64 42.64 0 0016.54-16.119 44.23 44.23 0 005.887-23.172 37.837 37.837 0 00-6.532-21.086h10.903a4.772 4.772 0 003.576-1.415 4.561 4.561 0 001.39-3.328v-12.12a4.61 4.61 0 00-1.315-3.527 5.31 5.31 0 00-3.651-1.217h-32.61a75.495 75.495 0 00-9.661-2.483 46.617 46.617 0 00-8.047-.895 45.914 45.914 0 00-23.346 5.936 42.04 42.04 0 00-16.194 16.367 47.807 47.807 0 00-5.836 23.644 46.78 46.78 0 002.558 15.523 43.139 43.139 0 007.277 13.113 22.586 22.586 0 00-9.164 9.215 27.586 27.586 0 00-3.328 13.46 26.756 26.756 0 004.545 15.573 29.069 29.069 0 0012.74 10.183 46.024 46.024 0 0018.603 3.576h31.542c5.588 0 9.71.82 12.418 2.434 2.707 1.614 4.073 4.322 4.073 8.122q0 6.556-8.246 10.058-8.233 3.54-22.55 3.527a130.468 130.468 0 01-20.49-1.689 96.913 96.913 0 01-18.081-4.495 6.1 6.1 0 00-1.466-.249 3.71 3.71 0 00-2.16.67 3.876 3.876 0 00-1.466 1.888l-5.712 14.182a5.372 5.372 0 00-.348 1.689 4.08 4.08 0 00.67 2.26 5.008 5.008 0 001.864 1.639 100.642 100.642 0 0021.905 5.638 167.064 167.064 0 0025.283 1.987q16.355 0 28.686-4.67 12.294-4.656 18.975-13.46 6.668-8.793 6.656-21.037a29.514 29.514 0 00-4.918-17.037zm-72.57-83.077a21 21 0 017.574-7.75 20.297 20.297 0 0110.63-2.855 21.249 21.249 0 0118.602 10.605 21.42 21.42 0 012.856 10.977 20.455 20.455 0 01-10.605 18.13 22.088 22.088 0 01-10.977 2.733 20.711 20.711 0 01-10.63-2.782 20.325 20.325 0 01-7.5-7.575 20.92 20.92 0 01-2.733-10.63 21.598 21.598 0 012.782-10.853z"/>
</svg>
